<?xml version="1.0" encoding="iso-8859-1"?>
<!-- Generator: Adobe Illustrator 19.0.0, SVG Export Plug-In . SVG Version: 6.00 Build 0)  -->
<svg version="1.1" id="Layer_1" xmlns="http://www.w3.org/2000/svg" xmlns:xlink="http://www.w3.org/1999/xlink" x="0px" y="0px"
	 viewBox="0 0 512 512" style="enable-background:new 0 0 512 512;" xml:space="preserve">
<g>
	<path style="fill:#989589;" d="M450.627,139.334c-9.909,0-16.959-4.711-20.952-14c-0.955-2.239-3.165-3.682-5.632-3.682
		c-0.311,0-0.587,0.018-0.846,0.055c-0.462,0.056-1.533,0.168-2.938,0.168c-6.768,0-11.182-2.438-12.433-6.865
		c-1.278-4.501,0.896-8.843,3.703-10.806c1.153-0.808,2.35-1.221,3.55-1.221c1.629,0,2.841,0.739,3.612,1.295
		c1.042,0.75,2.269,1.147,3.549,1.147c1.955,0,3.802-0.944,4.941-2.526c1.961-2.723,1.342-6.532-1.378-8.491l-0.1-0.072
		l-4.891-2.949l5.531-1.164c2.171-0.432,4.388-0.65,6.591-0.65c7.002,0,16.505,3.036,28.242,9.021l4.797,2.447l-5.133,1.631
		c-3.462,1.1-5.789,4.28-5.789,7.911c0,4.574,3.72,8.294,8.294,8.294c4.574,0,8.294-3.72,8.294-8.294
		c0-0.648-0.082-1.305-0.243-1.953l-1.307-5.236l4.606,2.814c6.58,4.02,13.622,8.75,19.831,13.321l1.5,1.104l-5.433,10.88
		l-0.93,0.27C485.318,133.043,463.026,139.334,450.627,139.334z"/>
	<path style="fill:#989589;" d="M493.213,121.309l-4.169,8.349c-9.444,2.742-27.9,7.464-38.417,7.464
		c-9.079,0-15.26-4.147-18.921-12.662c-1.316-3.085-4.379-5.02-7.663-5.02c-0.387,0-0.774,0.022-1.161,0.077
		c-0.111,0.011-11.069,1.471-12.927-5.109c-0.995-3.505,0.675-6.878,2.842-8.393c2.035-1.427,3.528-0.719,4.6,0.055
		c3.716,2.676,8.902,1.836,11.578-1.88c2.676-3.716,1.836-8.902-1.88-11.578c-0.111-0.077-0.21-0.155-0.321-0.221
		c2.002-0.398,4.058-0.608,6.159-0.608c7.453,0,17.306,3.716,27.237,8.78c-4.246,1.349-7.332,5.319-7.332,10.019
		c0,5.806,4.7,10.505,10.505,10.505c5.806,0,10.505-4.7,10.505-10.505c0-0.863-0.111-1.692-0.31-2.488
		C481.071,112.695,488.016,117.483,493.213,121.309z"/>
</g>
<g>
	<path style="fill:#D8B497;" d="M187.151,360.501l-0.761-4.288c4.497-1.647,8.745-3.574,12.625-5.729l1.713-0.951l7.953,10.969
		L187.151,360.501L187.151,360.501z"/>
	<path style="fill:#D8B497;" d="M200.09,352.417l4.257,5.872h-17.196C191.53,356.686,195.887,354.751,200.09,352.417z"/>
	<path style="fill:#D8B497;" d="M114.454,422.428c-15.645,0-40.572-7.489-60.617-18.211c-25.446-13.611-39.461-30.117-39.461-46.48
		c0-5.604,10.604-16.016,40.363-28.427c19.744-8.238,39.714-14.003,43.517-15.075l0.125-0.035c2.457-0.669,4.244-2.833,4.447-5.384
		c3.797-48.768,21.046-85.983,51.266-110.608c31.337-25.522,65.482-28.408,78.708-28.464h0.22c12.824,0,35.043,4.263,54.646,8.024
		l0.317,0.061c16.115,3.079,30.033,5.738,37.131,5.738c13.908,0,37.185,0,51.535-35.888c4.605-11.504,9.807-21.641,15.462-30.13
		l2.979-4.471l1.033,5.273c3.845,13.594,17.425,15.507,23.084,15.697l1.205,0.041l0.619,1.035
		c4.994,8.357,12.548,13.758,21.847,15.619l2.132,0.427l-0.39,2.139c-0.182,0.999-4.508,24.674-8.776,43.864
		c-7.864,35.391-36.209,55.891-48.032,63.061l-4.882,2.961l1.615-5.478c0.461-1.563,0.879-3.185,1.245-4.823
		c0.727-3.271-1.342-6.527-4.615-7.255c-0.438-0.097-0.887-0.147-1.33-0.147c-2.82,0-5.312,2.003-5.926,4.762
		c-1.005,4.536-2.328,8.028-3.607,11.404c-2.399,6.374-4.872,12.947-5.377,25.053c-0.646,15.359,12.923,43.99,21.041,58.488
		c1.074,1.926,3.104,3.121,5.301,3.121c0.437,0,0.877-0.048,1.306-0.143l9.025-1.979c0.209-0.046,0.435-0.072,0.659-0.072
		c0.976,0,1.904,0.479,2.484,1.282l7.979,11.964h-30.733l-0.659-0.738c-10.598-11.851-59.903-80.123-66.237-91.019l-0.491-0.845
		l0.293-0.931c0.836-2.658,4.384-7.174,7.19-9.833c2.443-2.297,2.562-6.148,0.272-8.592c-1.162-1.241-2.739-1.923-4.44-1.923
		c-1.549,0-3.024,0.584-4.152,1.645c-3.508,3.292-14.61,14.792-10.243,24.605c0.328,0.74,1.401,2.65,4.646,7.553l1.556,2.351
		l-2.655,0.951c-24.234,8.679-59.723,12.865-73.855,14.263l-2.38,0.236l-0.049-2.391c-0.174-8.41-1.627-17.525-4.319-27.093
		c-0.74-2.604-3.151-4.428-5.86-4.428c-0.555,0-1.111,0.077-1.653,0.23c-3.217,0.913-5.102,4.285-4.197,7.513
		c6.579,23.293,4.8,41.864-5.287,55.19c-3.235,4.265-21.73,25.537-68.479,25.537c-0.304,0-0.647,0.033-1.08,0.104l-0.866,0.143
		l-0.728-0.491c-12.747-8.601-13.274-8.601-15.018-8.601c-3.931,0-38.901,0.27-55.991,9.594c-1.786,0.966-2.96,2.754-3.148,4.786
		c-0.187,2.021,0.647,3.994,2.232,5.278c0.884,0.709,22.326,17.64,64.335,27.722c8.88,2.139,13.551,6.935,12.816,13.158
		C141.999,416.363,125.272,422.428,114.454,422.428z"/>
	<path style="fill:#D8B497;" d="M442.444,152.914c-0.343,1.88-4.578,24.981-8.758,43.78c-6.911,31.107-30.046,51.355-47.02,61.65
		c0.453-1.537,0.885-3.185,1.283-4.965c0.995-4.479-1.825-8.902-6.292-9.897c-4.479-0.995-8.902,1.825-9.897,6.292
		c-0.962,4.346-2.201,7.63-3.517,11.103c-2.455,6.524-4.998,13.27-5.518,25.744c-0.818,19.474,19.054,55.612,21.32,59.66
		c1.78,3.196,5.441,4.844,9.013,4.058l9.024-1.979c0.343-0.077,0.675,0.066,0.874,0.343l5.64,8.46h-25.611
		c-10.848-12.131-59.815-80.062-65.974-90.656c0.619-1.968,3.66-6.104,6.602-8.891c3.329-3.13,3.494-8.371,0.365-11.711
		s-8.382-3.517-11.722-0.376c-3.771,3.539-15.714,15.957-10.749,27.115c0.575,1.294,2.355,4.147,4.821,7.874
		c-23.842,8.537-58.676,12.695-73.328,14.144c-0.177-8.57-1.626-17.782-4.401-27.646c-1.25-4.401-5.828-6.967-10.24-5.728
		c-4.401,1.25-6.967,5.828-5.728,10.24c6.381,22.592,4.722,40.518-4.921,53.257c-3.118,4.114-20.989,24.66-66.715,24.66
		c-0.487,0-0.962,0.055-1.438,0.133c-13.292-8.968-13.845-8.979-16.256-8.979c-3.992,0-39.478,0.276-57.05,9.864
		c-2.433,1.316-4.036,3.771-4.291,6.524c-0.254,2.754,0.885,5.452,3.041,7.199c0.896,0.719,22.404,17.881,65.211,28.155
		c4.501,1.084,11.943,3.915,11.136,10.749c-1.327,11.18-16.466,17.129-26.894,17.129c-28.376,0-97.866-27.038-97.866-62.48
		c0-3.76,8.216-13.546,39.003-26.385c21.387-8.924,43.15-14.951,43.371-15.017c3.373-0.918,5.795-3.859,6.071-7.343
		c3.749-48.148,20.723-84.84,50.459-109.068c30.809-25.091,64.337-27.911,77.32-27.967c0.066,0,0.144,0,0.21,0
		c12.562,0,34.69,4.235,54.23,7.984c16.377,3.13,30.51,5.839,37.864,5.839c14.464,0,38.682,0,53.589-37.278
		c3.461-8.648,8.559-19.684,15.249-29.725c0.011,0.055,0.022,0.1,0.033,0.144c3.738,13.215,15.924,17.03,25.147,17.339
		C424.485,145.217,432.503,150.923,442.444,152.914z"/>
</g>
<path style="fill:#3D484A;" d="M508.861,112.374c3.074,2.444,4.014,6.701,2.267,10.207l-8.847,17.693
	c-1.006,2.024-2.798,3.539-4.954,4.213c-1.028,0.321-21.862,6.768-38.483,8.692c0.111,0.829,0.1,1.692-0.055,2.566
	c-0.044,0.243-4.501,24.715-8.913,44.554c-9.455,42.564-46.357,70.751-69.944,79.996c-0.31,2.068-0.531,4.357-0.641,7.011
	c-0.409,9.853,8.858,31.162,16.322,45.494l2.919-0.641c7.055-1.548,14.21,1.327,18.224,7.343l14.232,21.354
	c1.692,2.543,1.858,5.817,0.409,8.515c-1.438,2.698-4.246,4.379-7.31,4.379h-44.233c-4.711,0-6.989-2.101-18.755-17.306
	c-7.84-10.129-17.174-22.835-23.621-31.715c-0.188-0.265-11.556-15.924-21.497-30.134c-27.989,11.08-70.95,15.659-84.508,16.886
	c-1.847,8.648-5.352,16.444-10.539,23.311c-2.234,2.941-4.7,5.595-7.332,8.006l13.723,18.91c1.836,2.532,2.09,5.861,0.675,8.648
	c-1.415,2.776-4.269,4.523-7.387,4.523h-70.773c-1.67,0-3.295-0.498-4.667-1.438c-9.543-6.491-20.082-13.591-24.151-16.234
	c-7.188,0.133-19.96,0.863-31.074,2.942c9.787,5.076,24.505,11.357,44.134,16.068c19.463,4.667,25.025,17.948,23.731,28.818
	c-1.847,15.614-18.567,31.771-43.36,31.771c-18.467,0-46.799-8.493-68.893-20.657C16.178,399.98,0,379.234,0,357.736
	c0-14.464,15.681-27.723,49.342-41.756c15.891-6.624,31.594-11.611,39.666-14.022c5.009-49.431,24.306-89.075,56.01-114.896
	c34.911-28.431,72.985-31.638,87.726-31.693c14.133-0.055,37.233,4.368,57.625,8.272c14.243,2.731,28.973,5.551,34.745,5.551
	c13.491,0,27.447,0,38.195-26.861c17.317-43.293,42.044-67.135,69.623-67.135C461.177,75.196,504.061,108.57,508.861,112.374z
	 M489.044,129.658l4.169-8.349c-5.197-3.826-12.142-8.614-19.673-13.215c0.199,0.796,0.31,1.626,0.31,2.488
	c0,5.806-4.7,10.505-10.505,10.505s-10.505-4.7-10.505-10.505c0-4.7,3.085-8.67,7.332-10.019c-9.93-5.065-19.783-8.78-27.237-8.78
	c-2.101,0-4.158,0.21-6.159,0.608c0.111,0.066,0.21,0.144,0.321,0.221c3.716,2.676,4.556,7.862,1.88,11.578
	c-2.676,3.716-7.862,4.556-11.578,1.88c-1.073-0.774-2.566-1.482-4.6-0.055c-2.167,1.515-3.837,4.888-2.842,8.393
	c1.858,6.58,12.817,5.12,12.927,5.109c0.387-0.055,0.774-0.077,1.161-0.077c3.284,0,6.347,1.935,7.663,5.02
	c3.66,8.515,9.842,12.662,18.921,12.662C461.144,137.123,479.6,132.401,489.044,129.658z M433.686,196.694
	c4.18-18.799,8.415-41.9,8.758-43.78c-9.941-1.991-17.959-7.697-23.311-16.654c-9.223-0.31-21.409-4.125-25.147-17.339
	c-0.011-0.044-0.022-0.088-0.033-0.144c-6.69,10.041-11.788,21.077-15.249,29.725c-14.907,37.278-39.124,37.278-53.589,37.278
	c-7.354,0-21.486-2.709-37.864-5.839c-19.54-3.749-41.668-7.984-54.23-7.984c-0.066,0-0.144,0-0.21,0
	c-12.982,0.055-46.511,2.875-77.32,27.967c-29.736,24.229-46.71,60.92-50.459,109.068c-0.276,3.483-2.698,6.425-6.071,7.343
	c-0.221,0.066-21.984,6.093-43.371,15.017c-30.786,12.839-39.003,22.625-39.003,26.385c0,35.442,69.491,62.48,97.866,62.48
	c10.428,0,25.567-5.949,26.894-17.129c0.807-6.834-6.635-9.665-11.136-10.749c-42.807-10.273-64.315-27.436-65.211-28.155
	c-2.156-1.747-3.295-4.445-3.041-7.199c0.254-2.754,1.858-5.208,4.291-6.524c17.572-9.588,53.058-9.864,57.05-9.864
	c2.411,0,2.964,0.011,16.256,8.979c0.476-0.077,0.951-0.133,1.438-0.133c45.726,0,63.596-20.546,66.715-24.66
	c9.643-12.739,11.302-30.665,4.921-53.257c-1.239-4.412,1.327-8.99,5.728-10.24c4.412-1.239,8.99,1.327,10.24,5.728
	c2.776,9.864,4.224,19.076,4.401,27.646c14.652-1.449,49.486-5.607,73.328-14.144c-2.466-3.727-4.246-6.58-4.821-7.874
	c-4.965-11.158,6.978-23.576,10.749-27.115c3.34-3.141,8.592-2.964,11.722,0.376c3.129,3.34,2.964,8.581-0.365,11.711
	c-2.942,2.787-5.983,6.923-6.602,8.891c6.159,10.594,55.126,78.525,65.974,90.656h25.611l-5.64-8.46
	c-0.199-0.276-0.531-0.42-0.874-0.343l-9.024,1.979c-3.572,0.785-7.232-0.863-9.013-4.058c-2.267-4.047-22.139-40.186-21.32-59.66
	c0.52-12.474,3.063-19.219,5.518-25.744c1.316-3.472,2.554-6.757,3.517-11.103c0.995-4.468,5.419-7.287,9.897-6.292
	c4.468,0.995,7.287,5.419,6.292,9.897c-0.398,1.78-0.829,3.428-1.283,4.965C403.64,248.049,426.774,227.801,433.686,196.694z
	 M204.347,358.289l-4.257-5.872c-4.202,2.333-8.559,4.268-12.938,5.872H204.347z"/>
<g>
</g>
<g>
</g>
<g>
</g>
<g>
</g>
<g>
</g>
<g>
</g>
<g>
</g>
<g>
</g>
<g>
</g>
<g>
</g>
<g>
</g>
<g>
</g>
<g>
</g>
<g>
</g>
<g>
</g>
</svg>
